<svg xmlns="http://www.w3.org/2000/svg" width="29.004" height="33.561" viewBox="0 0 29.004 33.561"><defs><style>.a{fill:#ff2a57;}</style></defs><g transform="translate(-795.254 -476.596)"><path class="a" d="M3595.254,250.365V255.6h4.693a18.68,18.68,0,0,1-2.646-2.365A18.3,18.3,0,0,1,3595.254,250.365Z" transform="translate(-2800 254.553)"/><path class="a" d="M19.167,33.434H15.559l-2.131-4.243h0a8.372,8.372,0,0,1-2.226.293,7.064,7.064,0,0,1-2.575-.456A5.743,5.743,0,0,1,6.12,27.134a7.392,7.392,0,0,1-.874-1.363,7.446,7.446,0,0,1-.586-2.034c0-.015-.005-.041-.01-.075-.018-.137-.052-.392-.069-.57a12.185,12.185,0,0,1,.383-2.606,6.131,6.131,0,0,1,1.253-2.171,5.3,5.3,0,0,1,2.373-1.7,7.209,7.209,0,0,1,2.479-.409,8.788,8.788,0,0,1,2.152.261l2.755-4.5a13.032,13.032,0,0,0-1.592-.538,14.7,14.7,0,0,0-3.8-.538A9.324,9.324,0,0,0,6.05,11.965a13.794,13.794,0,0,0-4.68,4.344A13.047,13.047,0,0,0,0,18.838V0L15.145.269a12.226,12.226,0,0,1,1.536.268,17.666,17.666,0,0,1,3.624,1.272,15.284,15.284,0,0,1,4.233,2.978A14.455,14.455,0,0,1,27.9,10.175a16,16,0,0,1,.915,6.4,17.551,17.551,0,0,1-1.155,5.206,19.715,19.715,0,0,1-1.764,3.5,13.207,13.207,0,0,1-.913,1.28L29,33.434H25.561l-4.509-7.383a11.021,11.021,0,0,0,2.965-3.081,13.124,13.124,0,0,0,1.8-9.747,11.943,11.943,0,0,0-6.027-8.2,14.066,14.066,0,0,0-4.645-1.614L2.935,3.394l.032,6.781v0A8.75,8.75,0,0,1,4.883,9.127a13.326,13.326,0,0,1,2.352-.72,15.8,15.8,0,0,1,3.244-.327c.246,0,.5.005.745.016a17.688,17.688,0,0,1,3.616.529,16.675,16.675,0,0,1,2.7.94,11.8,11.8,0,0,1,2.279,1.3l-5.738,9.844v.123a3.678,3.678,0,0,0-3.107-1.735,3.849,3.849,0,0,0,0,7.693,3.678,3.678,0,0,0,3.112-1.743l5.078,8.393Z" transform="translate(795.254 476.596)"/></g></svg>