<svg xmlns="http://www.w3.org/2000/svg" width="31.965" height="35.813" viewBox="0 0 31.965 35.813"><g transform="translate(-795.254 -476.596)"><path d="M3595.253,250.365v5.84h5.758a22.406,22.406,0,0,1-3.247-2.637A20.487,20.487,0,0,1,3595.253,250.365Z" transform="translate(-2799.999 256.204)" fill="#ff0169"/><path d="M21.124,35.6H17.148L14.8,31.08h0a9.527,9.527,0,0,1-2.453.311,8.029,8.029,0,0,1-2.838-.485A6.313,6.313,0,0,1,6.745,28.89a7.841,7.841,0,0,1-.964-1.451,7.723,7.723,0,0,1-.646-2.165l-.011-.08c-.02-.146-.058-.417-.076-.607a12.571,12.571,0,0,1,.422-2.775A6.475,6.475,0,0,1,6.851,19.5a5.839,5.839,0,0,1,2.615-1.81,8.2,8.2,0,0,1,2.732-.435,10,10,0,0,1,2.372.277l3.037-4.793a14.708,14.708,0,0,0-1.755-.573,16.735,16.735,0,0,0-4.186-.573,10.569,10.569,0,0,0-5,1.146,15,15,0,0,0-5.158,4.626A13.728,13.728,0,0,0,0,20.057V0L16.692.287a13.912,13.912,0,0,1,1.693.285,19.937,19.937,0,0,1,3.994,1.354A16.857,16.857,0,0,1,27.044,5.1a15.323,15.323,0,0,1,3.708,5.736,16.507,16.507,0,0,1,1.009,6.814,18.15,18.15,0,0,1-1.273,5.543,20.725,20.725,0,0,1-1.944,3.726,14.108,14.108,0,0,1-1.006,1.363L31.965,35.6H28.171L23.2,27.737a11.96,11.96,0,0,0,3.267-3.28,13.591,13.591,0,0,0,1.984-10.377,12.784,12.784,0,0,0-6.643-8.735,15.89,15.89,0,0,0-5.119-1.718L3.234,3.614l.035,7.219v0A9.739,9.739,0,0,1,5.382,9.718,15.072,15.072,0,0,1,7.974,8.95,18,18,0,0,1,11.549,8.6c.271,0,.547.006.821.017a20.133,20.133,0,0,1,3.985.563,18.817,18.817,0,0,1,2.979,1,13.112,13.112,0,0,1,2.511,1.382L15.522,22.045v.13a4.1,4.1,0,1,0,.006,4.486l5.6,8.936Z" transform="translate(795.254 476.596)" fill="#ff0169"/></g></svg>